<svg xmlns="http://www.w3.org/2000/svg" version="1.1" xmlns:xlink="http://www.w3.org/1999/xlink" xmlns:svgjs="http://svgjs.dev/svgjs" width="1000" height="1000"><style>
    #light-icon {
      display: inline;
    }
    #dark-icon {
      display: none;
    }

    @media (prefers-color-scheme: dark) {
      #light-icon {
        display: none;
      }
      #dark-icon {
        display: inline;
      }
    }
  </style><g id="light-icon"><svg xmlns="http://www.w3.org/2000/svg" version="1.1" xmlns:xlink="http://www.w3.org/1999/xlink" xmlns:svgjs="http://svgjs.dev/svgjs" width="1000" height="1000"><g><g transform="matrix(1.6711453361675956,0,0,1.6711453361675956,27.08759475394055,0)"><svg xmlns="http://www.w3.org/2000/svg" version="1.1" xmlns:xlink="http://www.w3.org/1999/xlink" xmlns:svgjs="http://svgjs.dev/svgjs" width="565.974" height="598.392"><svg id="Layer_1" data-name="Layer 1" xmlns="http://www.w3.org/2000/svg" viewBox="0 0 565.974 598.392">
  <path d="M489.575,553.222c-40.75,37.6-141.83,43.76-195.53,44.97-39.78.9-80.26-1.15-119.56-7.88-38.46-6.58-111.53-21.68-115.46-69.87l-.18-185.84c-.4-1.75-1.76-2.89-2.95-4.09-6.69-6.74-16.05-11.64-23.01-19.21C-35.465,236.932,9.465,117.012,105.735,96.632c9.42-1.99,20.44-1.52,29.46-3.39,7.15-1.48,6.36-5.34,9.22-10.33,20.68-36.13,47.58-61.77,87.91-74.74,71.67-23.04,146.26,3.64,185.09,67.43,3.76,6.17,6.05,16.2,13.63,17.65,8.92,1.7,19.52,1.55,28.67,3.4,101.98,20.66,144.47,151.54,64.75,222.95-4.33,3.88-16.88,11.38-17.82,16.59-.32,48.66-.2,97.34-.22,146.01-.01,27.83,5.88,50.05-16.84,71.02h-.01ZM93.425,320.362v166.09c25.2-17.64,54.94-27.28,84.52-34.91-.29-12.72.26-25.48,0-38.2-.19-9.32-.09-19.61-.78-28.92-1.65-22.01-22.52-27.43-29.2-46.64-5.82-16.75-1.71-42.39-1.31-60.37.6-27.27-.92-56.81.72-83.69.38-6.16.8-13.44,7.16-16.3,8.24-3.7,14.93,2.11,16.14,10.28,1.02,35.49-1.16,71.13,1.34,106.52,1.2,3.84,7.05,4.85,9.61,2.11,3.27-3.5,1.65-23.66.95-29.08,1.92-25.58-2.45-54.63,0-79.79,1.42-14.69,20.9-15.04,23.32-.56,1.96,11.72-.05,31.6.15,44.4.03,1.85.82,3.56.85,5.41.24,16.89-1.85,38.65-.05,54.76,1.05,9.47,12.42,8.39,12.6-1.59.33-18.18-1.36-37.24-1.66-55.45,2.11-14.77-2.76-34.23-.56-48.3,1.69-10.82,14.59-13.53,20.5-4.45,3.57,5.48,1.66,19.16,1.96,26.18,1.29,30.23,3.07,60.33,3.95,90.62.49,16.9,3.21,29.78-5.14,45.68s-28.5,22.72-28.5,44.21v59.01c22.77-1,45.6-2.27,68.48-1.6,1.85.05,3.56.77,5.41.85,8.77.36,23.69-1.56,30.46,4.74,8.38,7.8,7.59,24.89-3.68,29.77-6.91,2.98-33.86,1.41-43.2,1.45-17.71.08-36.07-.77-53.94.75-26.03,2.21-52.72,7.98-77.06,17.21,0,0-1.56.59-3.13,1.07-4.4,1.35-19.39,9.91-23.06,13-18.59,15.66,5.91,26.68,19.16,31.62,53.19,19.84,143.33,22.49,199.84,17.6,8.77-.76,17.45-2.44,26.21-3.12l.03-167.69c-1.37-5.35-.29-10.91-.9-16.29-1.64-14.31-18.92-27.62-27.16-39.3-28.49-40.34-24.01-84.5-1.83-126.62,44.9-85.3,94.86-30.57,110.83,35.69,8.6,35.67,4.97,66.89-18.41,95.73-9.84,12.14-24.69,20.58-26.48,37.64l-.88,176.16c1.6,1.57,38.49-8.35,43.45-10.13,14.86-5.35,35.17-14.79,37.13-32.47l-.6-190.53c2-11.59,12.92-15,21.18-21.04,73.91-54.08,34.91-170.9-56.92-174.19-12.15-.43-27.21,5.44-34.36-7.87-4.49-8.37-7.02-17.84-12.37-26.72-46.28-76.73-161.59-78.81-209.03-2.04-3.64,5.9-6.68,12.2-9.73,18.41-4.41,8.99-4.5,17.75-16.94,19.03-10.27,1.05-20.4-1.27-31.93.14-83.2,10.18-115.15,114.56-52.52,168.67,6.64,5.74,23.99,14.64,25.4,23.08l-.02-.02Z" fill="#2e2a27"></path>
</svg></svg></g></g></svg></g><g id="dark-icon"><svg xmlns="http://www.w3.org/2000/svg" version="1.1" xmlns:xlink="http://www.w3.org/1999/xlink" xmlns:svgjs="http://svgjs.dev/svgjs" width="1000" height="1000"><g><g transform="matrix(1.6711453361675956,0,0,1.6711453361675956,27.08759475394055,0)"><svg xmlns="http://www.w3.org/2000/svg" version="1.1" xmlns:xlink="http://www.w3.org/1999/xlink" xmlns:svgjs="http://svgjs.dev/svgjs" width="565.974" height="598.392"><svg id="Layer_1" data-name="Layer 1" xmlns="http://www.w3.org/2000/svg" viewBox="0 0 565.974 598.392">
  <path d="M489.575,553.222c-40.75,37.6-141.83,43.76-195.53,44.97-39.78.9-80.26-1.15-119.56-7.88-38.46-6.58-111.53-21.68-115.46-69.87l-.18-185.84c-.4-1.75-1.76-2.89-2.95-4.09-6.69-6.74-16.05-11.64-23.01-19.21C-35.465,236.932,9.465,117.012,105.735,96.632c9.42-1.99,20.44-1.52,29.46-3.39,7.15-1.48,6.36-5.34,9.22-10.33,20.68-36.13,47.58-61.77,87.91-74.74,71.67-23.04,146.26,3.64,185.09,67.43,3.76,6.17,6.05,16.2,13.63,17.65,8.92,1.7,19.52,1.55,28.67,3.4,101.98,20.66,144.47,151.54,64.75,222.95-4.33,3.88-16.88,11.38-17.82,16.59-.32,48.66-.2,97.34-.22,146.01-.01,27.83,5.88,50.05-16.84,71.02h-.01ZM93.425,320.362v166.09c25.2-17.64,54.94-27.28,84.52-34.91-.29-12.72.26-25.48,0-38.2-.19-9.32-.09-19.61-.78-28.92-1.65-22.01-22.52-27.43-29.2-46.64-5.82-16.75-1.71-42.39-1.31-60.37.6-27.27-.92-56.81.72-83.69.38-6.16.8-13.44,7.16-16.3,8.24-3.7,14.93,2.11,16.14,10.28,1.02,35.49-1.16,71.13,1.34,106.52,1.2,3.84,7.05,4.85,9.61,2.11,3.27-3.5,1.65-23.66.95-29.08,1.92-25.58-2.45-54.63,0-79.79,1.42-14.69,20.9-15.04,23.32-.56,1.96,11.72-.05,31.6.15,44.4.03,1.85.82,3.56.85,5.41.24,16.89-1.85,38.65-.05,54.76,1.05,9.47,12.42,8.39,12.6-1.59.33-18.18-1.36-37.24-1.66-55.45,2.11-14.77-2.76-34.23-.56-48.3,1.69-10.82,14.59-13.53,20.5-4.45,3.57,5.48,1.66,19.16,1.96,26.18,1.29,30.23,3.07,60.33,3.95,90.62.49,16.9,3.21,29.78-5.14,45.68s-28.5,22.72-28.5,44.21v59.01c22.77-1,45.6-2.27,68.48-1.6,1.85.05,3.56.77,5.41.85,8.77.36,23.69-1.56,30.46,4.74,8.38,7.8,7.59,24.89-3.68,29.77-6.91,2.98-33.86,1.41-43.2,1.45-17.71.08-36.07-.77-53.94.75-26.03,2.21-52.72,7.98-77.06,17.21,0,0-1.56.59-3.13,1.07-4.4,1.35-19.39,9.91-23.06,13-18.59,15.66,5.91,26.68,19.16,31.62,53.19,19.84,143.33,22.49,199.84,17.6,8.77-.76,17.45-2.44,26.21-3.12l.03-167.69c-1.37-5.35-.29-10.91-.9-16.29-1.64-14.31-18.92-27.62-27.16-39.3-28.49-40.34-24.01-84.5-1.83-126.62,44.9-85.3,94.86-30.57,110.83,35.69,8.6,35.67,4.97,66.89-18.41,95.73-9.84,12.14-24.69,20.58-26.48,37.64l-.88,176.16c1.6,1.57,38.49-8.35,43.45-10.13,14.86-5.35,35.17-14.79,37.13-32.47l-.6-190.53c2-11.59,12.92-15,21.18-21.04,73.91-54.08,34.91-170.9-56.92-174.19-12.15-.43-27.21,5.44-34.36-7.87-4.49-8.37-7.02-17.84-12.37-26.72-46.28-76.73-161.59-78.81-209.03-2.04-3.64,5.9-6.68,12.2-9.73,18.41-4.41,8.99-4.5,17.75-16.94,19.03-10.27,1.05-20.4-1.27-31.93.14-83.2,10.18-115.15,114.56-52.52,168.67,6.64,5.74,23.99,14.64,25.4,23.08l-.02-.02Z" fill="#e9e4d2"></path>
</svg></svg></g></g></svg></g></svg>