<?xml version="1.0" encoding="UTF-8"?>
<svg id="Layer_1" data-name="Layer 1" xmlns="http://www.w3.org/2000/svg" viewBox="0 0 1710.335 598.392">
  <path d="M1710.335,241.032c-18.24,76.14-30.78,153.74-48.74,229.94-7.73,32.78-18.82,58.98-54.51,68.25-39.26,10.19-77.91-13.77-65.92-57.27,7.9-28.69,42.77-36.88,67.48-45.13l3.9-15.24c-17.85,20.4-55.84,30.8-77.8,11.7-7.7-6.7-8.81-11.71-12.07-20.78-.39-1.09.25-1.33-1.63-1.08-11.95,19.73-32.4,32.43-55.94,32.03-36.14-.62-51.49-20.83-48.89-55.86,1.12-15.04,12.48-43.22,3.78-56.16-8.97-13.34-32.68,1.41-40.38,10.21l-21.3,99.48h-58.67l58.78-275.8,60.12-7.92-29.71,140.68,77.04-60.18h40.29l-76.62,54.36c-2.27,2.42,1.63.35,1.91.35h14.08c2.37,0,10.32,2.49,12.89,3.53,22.17,8.94,27.09,34.66,24.05,56.05-2.57,18.05-20.22,54.66,13.04,50.54,14.48-1.8,22.57-20.84,27.65-32.56l28.76-132.27h58.28l-30.51,146.57c.03,7.49,1.5,17.54,10.52,18.38,22.56,2.11,31.18-26.69,35.25-43.79,9.55-40.08,16.32-80.94,25.45-121.12l59.42-.04v3.13h0ZM1605.515,451.292c-18.11,5.84-45.24,17.99-43.06,41.07,1.02,10.76,14.38,15.5,23.3,9.92,14.79-9.26,16.5-35.48,19.75-50.99h.01Z" fill="currentColor"/>
  <path d="M489.575,553.222c-40.75,37.6-141.83,43.76-195.53,44.97-39.78.9-80.26-1.15-119.56-7.88-38.46-6.58-111.53-21.68-115.46-69.87l-.18-185.84c-.4-1.75-1.76-2.89-2.95-4.09-6.69-6.74-16.05-11.64-23.01-19.21C-35.465,236.932,9.465,117.012,105.735,96.632c9.42-1.99,20.44-1.52,29.46-3.39,7.15-1.48,6.36-5.34,9.22-10.33,20.68-36.13,47.58-61.77,87.91-74.74,71.67-23.04,146.26,3.64,185.09,67.43,3.76,6.17,6.05,16.2,13.63,17.65,8.92,1.7,19.52,1.55,28.67,3.4,101.98,20.66,144.47,151.54,64.75,222.95-4.33,3.88-16.88,11.38-17.82,16.59-.32,48.66-.2,97.34-.22,146.01-.01,27.83,5.88,50.05-16.84,71.02h-.01ZM93.425,320.362v166.09c25.2-17.64,54.94-27.28,84.52-34.91-.29-12.72.26-25.48,0-38.2-.19-9.32-.09-19.61-.78-28.92-1.65-22.01-22.52-27.43-29.2-46.64-5.82-16.75-1.71-42.39-1.31-60.37.6-27.27-.92-56.81.72-83.69.38-6.16.8-13.44,7.16-16.3,8.24-3.7,14.93,2.11,16.14,10.28,1.02,35.49-1.16,71.13,1.34,106.52,1.2,3.84,7.05,4.85,9.61,2.11,3.27-3.5,1.65-23.66.95-29.08,1.92-25.58-2.45-54.63,0-79.79,1.42-14.69,20.9-15.04,23.32-.56,1.96,11.72-.05,31.6.15,44.4.03,1.85.82,3.56.85,5.41.24,16.89-1.85,38.65-.05,54.76,1.05,9.47,12.42,8.39,12.6-1.59.33-18.18-1.36-37.24-1.66-55.45,2.11-14.77-2.76-34.23-.56-48.3,1.69-10.82,14.59-13.53,20.5-4.45,3.57,5.48,1.66,19.16,1.96,26.18,1.29,30.23,3.07,60.33,3.95,90.62.49,16.9,3.21,29.78-5.14,45.68s-28.5,22.72-28.5,44.21v59.01c22.77-1,45.6-2.27,68.48-1.6,1.85.05,3.56.77,5.41.85,8.77.36,23.69-1.56,30.46,4.74,8.38,7.8,7.59,24.89-3.68,29.77-6.91,2.98-33.86,1.41-43.2,1.45-17.71.08-36.07-.77-53.94.75-26.03,2.21-52.72,7.98-77.06,17.21l.79,1.54c-1.44-.11-2.35-.95-3.92-.47-4.4,1.35-19.39,9.91-23.06,13-18.59,15.66,5.91,26.68,19.16,31.62,53.19,19.84,143.33,22.49,199.84,17.6,8.77-.76,17.45-2.44,26.21-3.12l.03-167.69c-1.37-5.35-.29-10.91-.9-16.29-1.64-14.31-18.92-27.62-27.16-39.3-28.49-40.34-24.01-84.5-1.83-126.62,44.9-85.3,94.86-30.57,110.83,35.69,8.6,35.67,4.97,66.89-18.41,95.73-9.84,12.14-24.69,20.58-26.48,37.64l-.88,176.16c1.6,1.57,38.49-8.35,43.45-10.13,14.86-5.35,35.17-14.79,37.13-32.47l-.6-190.53c2-11.59,12.92-15,21.18-21.04,73.91-54.08,34.91-170.9-56.92-174.19-12.15-.43-27.21,5.44-34.36-7.87-4.49-8.37-7.02-17.84-12.37-26.72-46.28-76.73-161.59-78.81-209.03-2.04-3.64,5.9-6.68,12.2-9.73,18.41-4.41,8.99-4.5,17.75-16.94,19.03-10.27,1.05-20.4-1.27-31.93.14-83.2,10.18-115.15,114.56-52.52,168.67,6.64,5.74,23.99,14.64,25.4,23.08l-.02-.02Z" fill="currentColor"/>
  <path d="M1143.205,299.652h11.34c2.03,0,8.84-2.06,11.34-2.74,4.45-1.2,8.72-3.15,13.12-4.48l12.31-54.53h58.28l-4.69,23.45c14.97-11.08,28.8-24.09,48.9-23.49,35.53,1.07,36.82,58.31.66,60.9-4.65.33-11.45-.2-14.8-3.77-4.27-4.54-5.39-21.32-9.5-22.55-10.99-3.28-23.18,8.04-30.79,14.46l-32.81,154.21h-58.67l26.59-128.96c-10.59,3.95-21.58,7.05-32.81,8.63-2.6,50.51-30.86,114.32-87.26,121.11-54.84,6.59-79-26.95-73.91-78.54,6.3-63.83,46.15-135.87,119.98-128.48,33.51,3.35,43.31,35.75,42.73,64.78h-.01ZM1108.655,283.112c1.01-1.6-.48-9.32-1.03-11.61-4.29-17.59-21.05-12.8-30.93-2.75-22.79,23.19-40,87.06-34.97,118.61,1.01,6.36,2.5,12.48,8.64,15.59,27.05,13.69,45.72-33.25,51.15-52.34,1.04-3.64,6.87-27.54,5.61-29.01-14.15-1.98-12.25-27.36-4.6-34.85,1.5-1.47,5.93-3.35,6.12-3.65l.01.01Z" fill="currentColor"/>
  <path d="M885.845,223.062l-5.47,28.92c22.59-19.21,67.47-24.42,85.58,3.19,15.61,23.79,10.09,70.89,3.99,97.64-9.75,42.7-34.64,84.77-82.15,89.87-15.79,1.7-35.09.79-45.75-12.5l-20.45,96.81-61.69,14.95,67.66-318.89h58.28v.01ZM896.595,266.232c-9.38,1.47-21.59,12.7-24.45,21.68l-23.01,109.17c1.63,11.38,15.63,11.26,24.54,8.82,26.61-7.28,39.17-50.08,43.22-74.06,2.94-17.42,10.51-70.44-20.3-65.61Z" fill="currentColor"/>
  <path d="M734.095,216.822c18.96-11.24,25.06-50.87.41-59.44-29.42-10.23-50.89,16.05-48.04,44.09,4.17,41.04,73.21,80.62,85.56,131.01,21.06,85.89-78.47,137.98-149.78,107.45-47.01-20.13-58.44-83.94-18.39-116.02,21.76-17.43,63.31-16.11,68.43,16.39-18.33-.75-38.69,8.8-44.04,27.52-16.08,56.19,61.35,69.96,81.19,21.72,29.08-70.73-99.4-116.85-80.11-197.28s183.3-74.68,159.29,14.57c-5.8,21.56-30.4,31.69-48.28,17.43-1.16-.93-6.92-6.46-6.24-7.42v-.02Z" fill="currentColor"/>
</svg>